HIERARCHY
ROOT hip
{
	OFFSET 0.000000 0.000000 0.000000 
	CHANNELS 6 Xposition Yposition Zposition Xrotation Zrotation Yrotation
	JOINT abdomen
	{
		OFFSET 0.000000 3.402643 0.000000 
		CHANNELS 3 Xrotation Zrotation Yrotation
		JOINT chest
		{
			OFFSET 0.000000 8.438565 -0.680529 
			CHANNELS 3 Xrotation Zrotation Yrotation
			JOINT neck
			{
				OFFSET 0.000000 10.207942 -0.272212 
				CHANNELS 3 Xrotation Zrotation Yrotation
				JOINT head
				{
					OFFSET 0.000000 3.130431 0.000000 
					CHANNELS 3 Xrotation Zrotation Yrotation
					End Site
					{
						OFFSET 0.000000 3.130435 0.000000 
					}
				}
			}
			JOINT lCollar
			{
				OFFSET 3.470700 6.669187 -0.816635 
				CHANNELS 3 Yrotation Zrotation Xrotation
				JOINT lShldr
				{
					OFFSET 3.198488 0.000000 0.000000 
					CHANNELS 3 Zrotation Yrotation Xrotation
					JOINT lForeArm
					{
						OFFSET 10.139888 0.000000 0.000000 
						CHANNELS 3 Yrotation Zrotation Xrotation
						JOINT lHand
						{
							OFFSET 8.370511 0.000000 0.000000 
							CHANNELS 3 Zrotation Yrotation Xrotation
							End Site
							{
								OFFSET 4.083176 0.000000 0.000000 
							}
						}
					}
				}
			}
			JOINT rCollar
			{
				OFFSET -3.470700 6.669187 -0.816635 
				CHANNELS 3 Yrotation Zrotation Xrotation
				JOINT rShldr
				{
					OFFSET -3.198488 0.000000 0.000000 
					CHANNELS 3 Zrotation Yrotation Xrotation
					JOINT rForeArm
					{
						OFFSET -10.139888 0.000000 0.000000 
						CHANNELS 3 Yrotation Zrotation Xrotation
						JOINT rHand
						{
							OFFSET -8.370511 0.000000 0.000000 
							CHANNELS 3 Zrotation Yrotation Xrotation
							End Site
							{
								OFFSET -4.083176 0.000000 0.000000 
							}
						}
					}
				}
			}
		}
	}
	JOINT lThigh
	{
		OFFSET 5.308129 -1.633274 1.361059 
		CHANNELS 3 Xrotation Zrotation Yrotation
		JOINT lShin
		{
			OFFSET -2.041588 -20.007561 0.000000 
			CHANNELS 3 Xrotation Zrotation Yrotation
			JOINT lFoot
			{
				OFFSET 0.000000 -19.190928 -1.224953 
				CHANNELS 3 Xrotation Yrotation Zrotation
				End Site
				{
					OFFSET 0.000000 -2.449906 4.627600 
				}
			}
		}
	}
	JOINT rThigh
	{
		OFFSET -5.308129 -1.633274 1.361059 
		CHANNELS 3 Xrotation Zrotation Yrotation
		JOINT rShin
		{
			OFFSET 2.041588 -20.007561 0.000000 
			CHANNELS 3 Xrotation Zrotation Yrotation
			JOINT rFoot
			{
				OFFSET 0.000000 -19.190928 -1.224953 
				CHANNELS 3 Xrotation Yrotation Zrotation
				End Site
				{
					OFFSET 0.000000 -2.449906 4.627600 
				}
			}
		}
	}
}
MOTION
Frames: 11
Frame Time: 0.033333
6.116430 43.909027 -61.084049 -1.084011 -0.400319 3.689216 21.328796 -0.466405 -0.339434 -20.839844 0.000000 0.000000 8.046340 2.750591 -3.507134 -2.520832 -1.255077 0.218355 -4.754609 -0.109184 -0.002653 -78.712181 -9.364583 47.806900 -2.647512 0.125068 -2.992206 -2.414009 -1.288808 -0.074853 4.754609 0.109184 -0.002672 80.692444 1.338905 -10.306850 3.139513 -0.787441 52.065147 -4.057724 8.588140 -0.146820 7.127211 12.615987 6.964976 -5.095692 -3.629180 8.821797 1.847068 0.146451 -4.493869 5.348058 -10.980732 -4.292645 -4.089534 3.815627 -2.323785 0.851771 -0.299746 3.690373 
6.054512 43.901413 -61.025135 -0.947307 -0.537036 3.768645 21.299406 -0.446987 -0.362998 -20.839844 0.000000 0.000000 8.204908 2.785408 -3.419426 -2.520832 -1.255077 0.218355 -4.754609 -0.109184 -0.002653 -77.620644 -10.470446 47.497826 -2.641408 0.078271 -6.019213 -1.984599 -1.405573 -0.060922 4.754609 0.109184 -0.002672 80.060013 2.243293 -10.198513 3.143048 -0.790175 52.494816 -4.189509 8.881956 -0.166712 7.233347 12.789106 7.399759 -5.480457 -3.650485 8.382044 2.034996 0.146188 -4.377308 5.250895 -10.738225 -4.747774 -3.978861 3.841895 -1.926726 0.705012 -0.303933 3.658963 
5.987480 43.892273 -60.956104 -0.752011 -0.712829 3.847246 21.279699 -0.394608 -0.363349 -20.839844 0.000000 0.000000 8.082093 2.700169 -3.238366 -2.520832 -1.255077 0.218355 -4.754609 -0.109184 -0.002653 -76.698608 -11.609188 47.192528 -2.636268 0.041034 -8.372455 -1.760195 -1.356428 -0.052904 4.754609 0.109184 -0.002672 79.429947 3.014090 -9.738644 3.143209 -0.790298 52.514347 -4.477616 9.068414 -0.188962 7.086473 13.042261 7.575475 -5.485907 -3.658179 8.167647 2.002840 0.129693 -4.311036 5.105338 -10.446744 -5.344946 -3.853210 3.862258 -1.361909 0.511270 -0.297780 3.663085 
5.925575 43.886185 -60.871845 -0.527399 -0.830043 3.962718 21.269819 -0.349136 -0.345550 -20.839844 0.000000 0.000000 7.910766 2.555717 -3.036361 -2.520832 -1.255077 0.218355 -4.754609 -0.109184 -0.002653 -75.949471 -12.749502 46.821388 -2.628110 0.029774 -9.007142 -1.398841 -1.317390 -0.054295 4.754609 0.109184 -0.002672 78.725945 3.390492 -9.067079 3.140876 -0.788500 52.231163 -5.066154 9.597815 -0.238970 6.912836 13.251167 7.415402 -5.479569 -3.659855 8.275180 1.924445 0.144500 -4.327487 4.958458 -10.249540 -5.448460 -3.768627 3.865260 -1.326446 0.334131 -0.308813 3.556311 
5.881889 43.883125 -60.783497 -0.400432 -0.820292 4.146357 21.299034 -0.307034 -0.318895 -20.839844 0.000000 0.000000 7.766449 2.415230 -2.931003 -2.520832 -1.255077 0.218355 -4.754609 -0.109184 -0.002653 -75.241493 -13.729689 46.373211 -2.636202 0.041484 -8.343162 -1.165007 -1.658621 -0.032369 4.754609 0.109184 -0.002672 77.906075 3.064014 -8.296394 3.128322 -0.791055 51.440052 -5.932355 10.675747 -0.330347 6.821956 13.314704 7.151783 -5.478984 -3.649869 8.421052 1.824228 0.139779 -4.320098 4.939652 -10.201841 -5.234823 -3.754819 3.843105 -1.725056 0.230273 -0.306834 3.453619 
5.840263 43.882118 -60.716984 -0.322291 -0.722645 4.681799 21.367453 -0.317283 -0.291961 -20.839844 0.000000 0.000000 7.292244 2.386360 -3.149592 -2.520832 -1.255077 0.218355 -4.754609 -0.109184 -0.002653 -74.562241 -14.485588 46.346386 -2.633486 0.061597 -7.034728 -1.302415 -2.517798 -0.011533 4.754609 0.109184 -0.002672 77.103630 1.944683 -7.734235 3.082616 -0.761496 48.197594 -6.380945 12.378857 -0.420480 6.658738 13.299347 6.684595 -5.485226 -3.648323 8.313529 1.778379 0.127672 -3.972087 5.076365 -10.241665 -5.143116 -3.803612 3.812848 -2.391199 0.136532 -0.316479 3.409018 
5.792030 43.871971 -60.702763 -0.244148 -0.458980 5.890627 21.494638 -0.413435 -0.341289 -20.839844 0.000000 0.000000 6.451253 2.520814 -3.992421 -2.520832 -1.255077 0.218355 -4.754609 -0.109184 -0.002653 -73.880318 -15.387859 46.878147 -2.639290 0.101241 -4.515485 -1.714829 -3.776760 0.033276 4.754609 0.109184 -0.002672 76.915802 -8.244342 -4.813591 19.238615 -0.703563 38.316677 -0.085498 8.479059 -0.100982 5.942810 13.127394 5.825593 -5.018986 -3.698360 7.443199 1.662120 0.101295 -3.079416 5.396598 -10.385149 -5.473533 -3.961541 3.765734 -3.318108 0.049256 -0.317299 3.399058 
5.765129 43.834915 -60.755070 -0.087891 -0.156250 7.734614 21.680601 -0.547605 -0.427941 -20.839844 0.000000 0.000000 5.179345 2.776032 -5.619895 -2.520832 -1.255077 0.218355 -4.754609 -0.109184 -0.002653 -73.419807 -16.733620 48.388027 -2.646738 0.143717 -1.761879 -1.863832 -4.781977 0.069013 4.754609 0.109184 -0.002672 76.022514 -14.965878 -3.548141 26.184475 -0.587989 28.616129 3.930553 7.062117 -0.378712 4.898908 12.824937 4.890052 -4.581559 -3.777886 5.883492 1.904074 0.047964 -1.425402 5.766335 -10.597589 -6.141019 -4.179695 3.700086 -4.541794 -0.000583 -0.317373 3.535176 
5.799126 43.768394 -60.832737 0.087891 -0.039062 9.785089 21.915554 -0.669212 -0.437710 -20.839844 0.000000 0.000000 3.670328 3.025786 -7.624548 -2.520832 -1.255077 0.218355 -4.754609 -0.109184 -0.002653 -73.659775 -18.309120 51.532978 -2.656207 0.156463 -0.931896 -1.337669 -5.182111 0.083225 4.754609 0.109184 -0.002672 75.147705 -19.823711 -3.213453 26.855165 -0.500340 24.955805 6.242158 7.701078 -0.207809 4.040890 12.388888 4.827142 -4.636056 -3.765427 5.017026 2.948862 0.001403 0.134957 6.092860 -10.712922 -6.945020 -4.280740 3.637826 -5.834668 -0.126413 -0.341752 3.976357 
5.952980 43.677017 -60.851017 0.087891 -0.136719 11.630627 22.150394 -0.744504 -0.376951 -20.839844 0.000000 0.000000 2.766696 3.249480 -9.533698 -2.520832 -1.255077 0.218355 -4.754609 -0.109184 -0.002653 -74.448082 -19.818636 54.826126 -2.646621 0.147863 -1.488473 -0.662564 -5.045830 0.068651 4.754609 0.109184 -0.002672 74.835335 -20.069664 -3.963356 16.873247 -0.616317 33.220104 3.594901 12.377277 0.470841 4.029608 11.575082 5.842369 -5.480195 -3.426114 8.192056 4.824501 -0.002034 0.975947 6.597496 -10.717319 -7.791700 -4.280396 3.568683 -6.944413 -0.425399 -0.390764 4.776344 
6.264166 43.565834 -60.743382 -0.361333 -0.302728 12.912066 22.346088 -0.807355 -0.321415 -20.839844 0.000000 0.000000 3.454053 3.730910 -11.100297 -2.520832 -1.255077 0.218355 -4.754609 -0.109184 -0.002653 -75.235680 -20.703545 56.666115 -2.646747 0.143421 -1.781408 -0.085051 -4.860751 0.052338 4.754609 0.109184 -0.002672 74.665398 -18.605995 -4.896942 3.206926 -0.814686 56.880096 -5.563086 15.613380 -0.439092 0.185024 10.800116 7.102655 3.269196 -2.772193 14.693308 1.387019 -0.019198 1.427735 7.635353 -10.732137 -8.604478 -4.303614 3.551410 -7.501638 -0.864113 -0.449504 5.575925 
